Encoded by Ratzz.




General
Complete name                    : Carnage 2011 1080p Brrip x264 Ratzz.mp4
Format                           : MP4
Format profile                   : Base Media
Codec ID                         : isom
File size                        : 1.30 GiB
Duration                         : 1h 19mn
Overall bit rate                 : 2 336 Kbps


Video
ID                               : 1
Format                           : AVC
Format/Info                      : Advanced Video Codec
Format profile                   : High@L4.0
Format settings, CABAC           : Yes
Format settings, ReFrames        : 3 frames
Format settings, GOP             : M=1, N=48
Codec ID                         : avc1
Codec ID/Info                    : Advanced Video Coding
Duration                         : 1h 19mn
Bit rate mode                    : Variable
Bit rate                         : 2 205 Kbps
Maximum bit rate                 : 25.0 Mbps
Width                            : 1 920 pixels
Height                           : 824 pixels
Display aspect ratio             : 2.35:1
Frame rate mode                  : Constant
Frame rate                       : 23.976 fps
Color space                      : YUV
Chroma subsampling               : 4:2:0
Bit depth                        : 8 bits
Scan type                        : Progressive
Bits/(Pixel*Frame)               : 0.058
Stream size                      : 1.23 GiB (94%)
Title                            : Carnage 2011 1080p Brrip x264 Ratzz
Writing library                  : x264 core 120 r2120 0c7dab9


Audio
ID                               : 2
Format                           : AAC
Format/Info                      : Advanced Audio Codec
Format profile                   : LC
Codec ID                         : 40
Duration                         : 1h 19mn
Bit rate mode                    : Variable
Bit rate                         : 128 Kbps
Maximum bit rate                 : 133 Kbps
Channel(s)                       : 2 channels
Channel positions                : Front: L R
Sampling rate                    : 48.0 KHz
Compression mode                 : Lossy
Stream size                      : 72.9 MiB (5%)
Language                         : English


Subtitles                        : eng .srt included



Screen shots :


 
http://img208.imageshack.us/img208/2980/image1mce.jpg
 
http://img17.imageshack.us/img17/7500/image2py.jpg
 
http://img803.imageshack.us/img803/4282/image3ao.jpg



Poster :

 
http://img812.imageshack.us/img812/1653/carnage20111080pbrripx2.jpg


pls seed back after download and provide feedback.
thank you.